<?xml version="1.0" encoding="UTF-8" standalone="no"?>
<!-- Created with Inkscape (http://www.inkscape.org/) -->

<svg
   xmlns:dc="http://purl.org/dc/elements/1.1/"
   xmlns:cc="http://creativecommons.org/ns#"
   xmlns:rdf="http://www.w3.org/1999/02/22-rdf-syntax-ns#"
   xmlns:svg="http://www.w3.org/2000/svg"
   xmlns="http://www.w3.org/2000/svg"
   xmlns:sodipodi="http://sodipodi.sourceforge.net/DTD/sodipodi-0.dtd"
   xmlns:inkscape="http://www.inkscape.org/namespaces/inkscape"
   width="50.604496mm"
   height="13.221969mm"
   viewBox="0 0 179.30726 46.849496"
   id="svg2"
   version="1.1"
   inkscape:version="0.91 r13725"
   sodipodi:docname="logo.svg">
  <defs
     id="defs4" />
  <sodipodi:namedview
     id="base"
     pagecolor="#ffffff"
     bordercolor="#666666"
     borderopacity="1.0"
     inkscape:pageopacity="0.0"
     inkscape:pageshadow="2"
     inkscape:zoom="3.959798"
     inkscape:cx="104.9331"
     inkscape:cy="11.129662"
     inkscape:document-units="px"
     inkscape:current-layer="layer1"
     showgrid="false"
     inkscape:window-width="1920"
     inkscape:window-height="1004"
     inkscape:window-x="0"
     inkscape:window-y="36"
     inkscape:window-maximized="1"
     fit-margin-top="0"
     fit-margin-left="0"
     fit-margin-right="0"
     fit-margin-bottom="0"
     inkscape:snap-bbox="true"
     inkscape:bbox-nodes="true"
     inkscape:bbox-paths="true"
     inkscape:snap-bbox-edge-midpoints="true"
     inkscape:snap-bbox-midpoints="true"
     inkscape:object-paths="true"
     inkscape:snap-intersection-paths="true"
     inkscape:snap-smooth-nodes="true"
     inkscape:object-nodes="true"
     inkscape:snap-midpoints="true"
     inkscape:snap-object-midpoints="true"
     inkscape:snap-center="true"
     inkscape:snap-text-baseline="true"
     inkscape:snap-page="true"
     showguides="true"
     inkscape:guide-bbox="true"
     inkscape:snap-global="true" />
  <metadata
     id="metadata7">
    <rdf:RDF>
      <cc:Work
         rdf:about="">
        <dc:format>image/svg+xml</dc:format>
        <dc:type
           rdf:resource="http://purl.org/dc/dcmitype/StillImage" />
        <dc:title></dc:title>
      </cc:Work>
    </rdf:RDF>
  </metadata>
  <g
     inkscape:label="Layer 1"
     inkscape:groupmode="layer"
     id="layer1"
     transform="translate(-111.24099,-261.10181)">
    <g
       style="font-style:normal;font-weight:normal;font-size:40px;line-height:361.99998856%;font-family:sans-serif;letter-spacing:0px;word-spacing:0px;fill:#000000;fill-opacity:1;stroke:none;stroke-width:1px;stroke-linecap:butt;stroke-linejoin:miter;stroke-opacity:1"
       id="text4136"
       transform="translate(0.46446632,2.5685865)">
      <path
         d="m 167.6041,268.15797 0,21.16 q 0,1.28 0.52,1.8 0.52,0.48 1.84,0.48 l 9.6,0 0.2,3.88 q -3.92,0.36 -10.96,0.36 -6.2,0 -6.2,-5.72 l 0,-21.96 5,0 z"
         style="font-style:normal;font-variant:normal;font-weight:600;font-stretch:normal;font-family:'Exo 2 Semi Bold';-inkscape-font-specification:'Exo 2 Semi Bold,  Semi-Bold'"
         id="path4175"
         inkscape:connector-curvature="0" />
      <path
         d="m 184.60394,267.63797 2.24,0 q 1.4,0 1.4,1.4 l 0,2.2 q 0,1.4 -1.4,1.4 l -2.24,0 q -1.4,0 -1.4,-1.4 l 0,-2.2 q 0,-1.4 1.4,-1.4 z m 3.56,28.12 -4.84,0 0,-19.6 4.84,0 0,19.6 z"
         style="font-style:normal;font-variant:normal;font-weight:600;font-stretch:normal;font-family:'Exo 2 Semi Bold';-inkscape-font-specification:'Exo 2 Semi Bold,  Semi-Bold'"
         id="path4177"
         inkscape:connector-curvature="0" />
      <path
         d="m 198.56453,267.75797 0,6.6 q 0,2.84 -0.48,4.56 3.12,-3.32 7.2,-3.32 3.72,0 5.44,2.4 1.72,2.4 1.72,7.84 0,5.12 -2.04,7.76 -2,2.64 -7.16,2.64 -2.28,0 -5.04,-0.4 -2.76,-0.36 -4.52,-1.08 l 0,-27 4.88,0 z m 0,14.12 0,10 q 2.32,0.56 4.56,0.48 2.36,-0.04 3.32,-1.44 0.96,-1.4 1,-5.08 -0.04,-3.6 -0.8,-4.88 -0.76,-1.28 -3.2,-1.28 -1.2,0 -2.24,0.52 -1.04,0.52 -2.64,1.68 z"
         style="font-style:normal;font-variant:normal;font-weight:600;font-stretch:normal;font-family:'Exo 2 Semi Bold';-inkscape-font-specification:'Exo 2 Semi Bold,  Semi-Bold'"
         id="path4179"
         inkscape:connector-curvature="0" />
      <path
         d="m 230.28427,275.59797 -0.52,4.56 -1.4,0 q -2.08,0 -6.48,1.76 l 0,13.84 -4.88,0 0,-19.6 3.8,0 0.44,2.88 q 4.2,-3.44 8.08,-3.44 l 0.96,0 z"
         style="font-style:normal;font-variant:normal;font-weight:600;font-stretch:normal;font-family:'Exo 2 Semi Bold';-inkscape-font-specification:'Exo 2 Semi Bold,  Semi-Bold'"
         id="path4181"
         inkscape:connector-curvature="0" />
      <path
         d="m 245.48407,287.99797 -8,0 q 0.28,2.56 1.44,3.44 1.16,0.84 3.8,0.84 3,0 7.04,-0.48 l 0.44,3.12 q -2.76,1.32 -8.08,1.32 -5.32,0 -7.56,-2.36 -2.24,-2.36 -2.24,-7.96 0,-5.72 2.2,-8 2.2,-2.32 7.28,-2.32 4.68,0 6.8,1.72 2.12,1.68 2.12,5.08 0,5.6 -5.24,5.6 z m -8.08,-3.4 6.72,0 q 1.76,0 1.76,-2.28 0,-1.6 -0.84,-2.24 -0.84,-0.64 -3.04,-0.64 -2.56,0 -3.56,1.08 -0.96,1.04 -1.04,4.08 z"
         style="font-style:normal;font-variant:normal;font-weight:600;font-stretch:normal;font-family:'Exo 2 Semi Bold';-inkscape-font-specification:'Exo 2 Semi Bold,  Semi-Bold'"
         id="path4183"
         inkscape:connector-curvature="0" />
      <path
         d="m 265.88424,267.63797 q 6.4,0 8.88,3.08 2.52,3.08 2.52,11.24 0,8.16 -2.52,11.24 -2.48,3.08 -8.88,3.08 -6.36,0 -8.88,-3.08 -2.48,-3.08 -2.48,-11.24 0,-8.16 2.48,-11.24 2.52,-3.08 8.88,-3.08 z m 0,4.28 q -3.48,0 -4.8,2.16 -1.28,2.12 -1.28,7.88 0,5.76 1.28,7.92 1.32,2.12 4.8,2.12 3.52,0 4.8,-2.12 1.32,-2.16 1.32,-7.92 0,-5.76 -1.32,-7.88 -1.28,-2.16 -4.8,-2.16 z"
         style="font-style:normal;font-variant:normal;font-weight:600;font-stretch:normal;font-family:'Exo 2 Semi Bold';-inkscape-font-specification:'Exo 2 Semi Bold,  Semi-Bold'"
         id="path4185"
         inkscape:connector-curvature="0" />
      <path
         d="m 290.08378,268.15797 0,21.52 q 0,3.16 -1.52,4.84 -1.48,1.68 -4.24,1.68 -2.68,0 -4.4,-0.68 l 0.52,-3.48 1.88,0 q 2.8,0 2.8,-2.48 l 0,-21.4 4.96,0 z"
         style="font-style:normal;font-variant:normal;font-weight:600;font-stretch:normal;font-family:'Exo 2 Semi Bold';-inkscape-font-specification:'Exo 2 Semi Bold,  Semi-Bold'"
         id="path4187"
         inkscape:connector-curvature="0" />
    </g>
    <path
       style="opacity:1;fill:#000000;fill-opacity:1;stroke:#000000;stroke-width:0.40000001;stroke-linecap:butt;stroke-linejoin:miter;stroke-miterlimit:4;stroke-dasharray:none;stroke-dashoffset:0;stroke-opacity:1"
       d="m 135.41382,261.486 -12.48242,8.74024 -7.56055,5.29297 -3.78125,2.64843 3.78125,2.64844 20.04297,14.03516 0,-2.82227 -16.00977,-11.21093 -3.7832,-2.64844 3.7832,-2.64844 7.56055,-5.29297 8.44922,-5.91797 0,-2.82422 z"
       id="rect4219"
       inkscape:connector-curvature="0" />
    <path
       inkscape:connector-curvature="0"
       style="opacity:1;fill:#000000;fill-opacity:1;stroke:#000000;stroke-width:0.40000001;stroke-linecap:butt;stroke-linejoin:miter;stroke-miterlimit:4;stroke-dasharray:none;stroke-dashoffset:0;stroke-opacity:1"
       d="m 127.3862,274.20186 12.48242,8.74023 7.56055,5.29297 3.78125,2.64844 -3.78125,2.64843 -20.04297,14.03516 0,-2.82227 16.00976,-11.21093 3.78321,-2.64844 -3.78321,-2.64844 -7.56054,-5.29297 -8.44922,-5.91797 0,-2.82421 z"
       id="rect4219-7" />
  </g>
</svg>
